<svg xmlns="http://www.w3.org/2000/svg" width="218" height="80" fill="none" viewBox="0 0 218 80"><path fill="#595959" d="M193.5 11h-178a5 5 0 0 0 0 10h178a5 5 0 0 0 0-10Z"/><path fill="#FFD033" d="M144.726 80H5.652a5.17 5.17 0 0 1-3.395-1.315 5.289 5.289 0 0 1-.9-6.818 5.202 5.202 0 0 1 2.934-2.168l64.843-18.075a16.934 16.934 0 0 1 9.11 0l67.751 18.878a4.792 4.792 0 0 1 2.712 1.996 4.873 4.873 0 0 1-.828 6.292 4.768 4.768 0 0 1-3.135 1.21h-.018ZM73.67 54.904c-1.19 0-2.375.162-3.522.485L5.28 73.439c-.32.08-.597.28-.774.56-.178.279-.242.617-.18.943a1.236 1.236 0 0 0 .403.86 1.21 1.21 0 0 0 .891.31h139.074a.839.839 0 0 0 .814-.488.876.876 0 0 0 .079-.327.884.884 0 0 0-.113-.664.874.874 0 0 0-.549-.384l-67.758-18.86a12.985 12.985 0 0 0-3.492-.485h-.006Z"/><path fill="#FFD033" d="M73.497 55a2.021 2.021 0 0 1-1.41-.577 1.95 1.95 0 0 1-.587-1.385v-29.18c.029-.502.252-.975.624-1.32A2.023 2.023 0 0 1 73.5 22c.512 0 1.004.192 1.376.538.372.345.595.818.624 1.32v29.18a1.95 1.95 0 0 1-.589 1.388 2.022 2.022 0 0 1-1.414.574Z"/><path fill="#FFD033" d="M72.634 26A13 13 0 1 1 85.5 13.03a1.925 1.925 0 0 1-3.85 0 9.017 9.017 0 1 0-9.016 9.108 1.925 1.925 0 1 1 0 3.843V26Z"/><path fill="#FDD835" d="M212.72 80H73.651a5.17 5.17 0 0 1-3.394-1.315 5.29 5.29 0 0 1-.9-6.818 5.202 5.202 0 0 1 2.934-2.168l64.84-18.075a16.931 16.931 0 0 1 9.109 0l67.755 18.86a4.797 4.797 0 0 1 2.713 1.995 4.877 4.877 0 0 1-.829 6.292 4.766 4.766 0 0 1-3.135 1.21l-.024.019Zm-71.052-25.096c-1.191 0-2.376.162-3.523.485l-64.858 18.05c-.32.078-.6.278-.778.557-.179.28-.244.619-.181.946a1.234 1.234 0 0 0 .402.86 1.21 1.21 0 0 0 .891.31h139.068a.843.843 0 0 0 .618-.218.85.85 0 0 0 .281-.597.87.87 0 0 0-.115-.666.861.861 0 0 0-.553-.382l-67.755-18.86a12.981 12.981 0 0 0-3.492-.485h-.005Z"/><path fill="#FDD835" d="M141.503 55a2.02 2.02 0 0 1-1.414-.574 1.954 1.954 0 0 1-.589-1.388v-29.18c.029-.502.252-.975.624-1.32A2.022 2.022 0 0 1 141.5 22c.512 0 1.004.192 1.376.538.372.345.595.818.624 1.32v29.18c0 .52-.211 1.02-.585 1.387a2.014 2.014 0 0 1-1.412.575Z"/><path fill="#FDD835" d="M140.632 26a12.998 12.998 0 0 1-9.361-22.156 12.996 12.996 0 0 1 20.041 1.941 13.005 13.005 0 0 1 2.185 7.245 1.919 1.919 0 0 1-.523 1.43 1.93 1.93 0 0 1-1.399.602 1.924 1.924 0 0 1-1.921-2.032 9.022 9.022 0 1 0-9.022 9.108 1.924 1.924 0 1 1 0 3.843V26Z"/><path fill="#595959" d="M76.5 11h14v7h-14zM144.5 11h14v7h-14z"/></svg>