<svg width="24" height="24" viewBox="0 0 24 24" fill="none" xmlns="http://www.w3.org/2000/svg"><path d="M17 10.25a3.25 3.25 0 1 1 0-6.5 3.25 3.25 0 0 1 0 6.5zM4 13.75h6a.25.25 0 0 1 .25.25v6a.25.25 0 0 1-.25.25H4a.25.25 0 0 1-.25-.25v-6a.25.25 0 0 1 .25-.25z" fill="#FFC700" stroke="#303030" stroke-width="1.5" stroke-linecap="round" stroke-linejoin="round"/><path d="M14 13.75h6a.25.25 0 0 1 .25.25v6a.25.25 0 0 1-.25.25h-6a.25.25 0 0 1-.25-.25v-6a.25.25 0 0 1 .25-.25zM4 3.75h6a.25.25 0 0 1 .25.25v6a.25.25 0 0 1-.25.25H4a.25.25 0 0 1-.25-.25V4A.25.25 0 0 1 4 3.75z" stroke="#303030" stroke-width="1.5" stroke-linecap="round" stroke-linejoin="round"/></svg>