<svg xmlns="http://www.w3.org/2000/svg" width="38" height="17" fill="none" viewBox="0 0 38 17"><path fill="#FFC700" d="M18 0h20v17H18z" opacity=".7"/><path fill="#0F0F0F" d="M3.304 14V5.74H.056V4.2h8.316v1.54H5.124V14h-1.82Zm6.088 0V6.524h1.666v2.058l-.196-.602a2.372 2.372 0 0 1 1.05-1.148c.486-.261 1.087-.392 1.806-.392v1.666a.867.867 0 0 0-.21-.028 1.384 1.384 0 0 0-.196-.014c-.662 0-1.19.196-1.582.588-.392.383-.588.957-.588 1.722V14h-1.75Zm5.81 0V6.524h1.75V14h-1.75Zm.883-8.708c-.327 0-.598-.103-.812-.308a1.011 1.011 0 0 1-.308-.742c0-.299.102-.546.308-.742.214-.205.485-.308.812-.308.326 0 .592.098.798.294a.904.904 0 0 1 .322.714c0 .308-.103.57-.308.784-.206.205-.476.308-.812.308ZM19.418 14V4.2h4.592c1.176 0 2.072.233 2.688.7.616.457.924 1.073.924 1.848 0 .523-.122.97-.364 1.344-.243.364-.57.649-.98.854-.402.196-.84.294-1.316.294l.252-.504c.55 0 1.045.103 1.484.308.438.196.784.485 1.036.868.26.383.392.859.392 1.428 0 .84-.322 1.493-.966 1.96-.644.467-1.601.7-2.87.7h-4.872Zm1.82-1.428h2.94c.68 0 1.204-.112 1.568-.336.364-.224.546-.583.546-1.078 0-.485-.182-.84-.546-1.064-.364-.233-.887-.35-1.568-.35h-3.08V8.33h2.716c.634 0 1.12-.112 1.456-.336.345-.224.518-.56.518-1.008 0-.457-.173-.798-.518-1.022-.336-.224-.822-.336-1.456-.336h-2.576v6.944Zm12.176 1.526c-.83 0-1.559-.163-2.184-.49a3.711 3.711 0 0 1-1.442-1.372c-.336-.579-.504-1.237-.504-1.974 0-.747.163-1.405.49-1.974a3.616 3.616 0 0 1 1.372-1.358c.588-.327 1.255-.49 2.002-.49.728 0 1.377.159 1.946.476.57.317 1.017.765 1.344 1.344.327.579.49 1.26.49 2.044 0 .075-.005.159-.014.252 0 .093-.005.182-.014.266h-6.23V9.66h5.306l-.686.364a2.15 2.15 0 0 0-.266-1.134 2.034 2.034 0 0 0-.77-.77 2.14 2.14 0 0 0-1.106-.28c-.43 0-.807.093-1.134.28-.317.187-.57.448-.756.784-.177.327-.266.714-.266 1.162v.28c0 .448.103.845.308 1.19.205.345.495.611.868.798.373.187.803.28 1.288.28.42 0 .798-.065 1.134-.196.336-.13.635-.336.896-.616l.938 1.078c-.336.392-.76.695-1.274.91-.504.205-1.083.308-1.736.308Z"/></svg>